# xmcd
#
# Track frame offsets: 
#        150
#        16946
#        38023
#        56050
#        72437
#        95753
#        108952
#        127175
#        140438
#        156447
#        168090
#        175832
#
# Disc length: 2567 seconds
#
# Revision: 0
# Processed by: cddbd v1.5.2PL0 Copyright (c) Steve Scherf et al.
# Submitted via: ExactAudioCopy v1.0b2
#
DISCID=a40a050c
DTITLE=Grey DeLisle - 'Neath A Cold Grey Stone
DYEAR=2005
DGENRE=Alternative Country
TTITLE0=Bohemian Rhapsody
TTITLE1=Who Made You King
TTITLE2=Iron Flowers
TTITLE3=Willie We Have Missed You
TTITLE4=Borrowed And Blue
TTITLE5=Usted
TTITLE6='Twas Her Hunger
TTITLE7=Sharecroppin' Man
TTITLE8=Sweet Savior's Arms
TTITLE9=The Jewel Of Abilene
TTITLE10=I'm On Fire
TTITLE11=Bohemian Rhapsody (Alternate LP Master)
EXTD=
EXTT0=
EXTT1=
EXTT2=
EXTT3=
EXTT4=
EXTT5=
EXTT6=
EXTT7=
EXTT8=
EXTT9=
EXTT10=
EXTT11=
PLAYORDER=
